<?xml version="1.0" standalone="no"?>
<!DOCTYPE svg PUBLIC "-//W3C//DTD SVG 20010904//EN"
 "http://www.w3.org/TR/2001/REC-SVG-20010904/DTD/svg10.dtd">
<svg version="1.0" xmlns="http://www.w3.org/2000/svg"
 width="512.000000pt" height="512.000000pt" viewBox="0 0 512.000000 512.000000"
 preserveAspectRatio="xMidYMid meet">
<metadata>
Created by potrace 1.14, written by Peter Selinger 2001-2017
</metadata>
<g transform="translate(0.000000,512.000000) scale(0.100000,-0.100000)"
fill="#000000" stroke="none">
<path d="M712 5109 c-175 -29 -320 -107 -457 -244 -141 -141 -215 -281 -244
-465 -15 -90 -15 -3590 0 -3680 29 -184 103 -324 244 -465 141 -141 281 -215
465 -244 90 -15 3590 -15 3680 0 184 29 324 103 465 244 141 141 215 281 244
465 15 90 15 3590 0 3680 -29 184 -103 324 -244 465 -141 141 -281 215 -465
244 -81 13 -3609 13 -3688 0z m3128 -2549 l0 -1200 -80 0 -80 0 0 1200 0 1200
80 0 80 0 0 -1200z m-1365 1037 c224 -42 343 -95 444 -195 74 -75 117 -152
153 -277 20 -70 23 -102 23 -255 0 -195 -17 -285 -75 -400 -60 -118 -184 -234
-302 -283 -21 -9 -38 -19 -38 -22 0 -3 118 -173 262 -378 143 -205 270 -384
280 -399 l19 -28 -308 1 -308 0 -245 357 -246 357 -177 3 -177 2 0 -360 0
-360 -250 0 -250 0 0 1131 0 1131 558 -5 c439 -4 574 -8 637 -20z"/>
<path d="M1780 2855 l0 -335 248 0 c261 0 344 10 418 48 93 48 136 131 142
273 5 120 -13 193 -64 249 -71 78 -185 100 -520 100 l-224 0 0 -335z"/>
</g>
</svg>
