<svg width="26" height="24" viewBox="0 0 26 24" fill="none" xmlns="http://www.w3.org/2000/svg">
<path d="M18.2223 8.89488C18.2223 12.5175 16.7975 14.8571 13.9479 15.9137L19.6364 24H13.4659L8.48446 16.7871H5.01354V24H0V1.39084H8.51659C12.0089 1.39084 14.4943 1.98383 15.9726 3.16981C17.4724 4.3558 18.2223 6.26415 18.2223 8.89488ZM8.67729 12.4205C10.3913 12.4205 11.559 12.1402 12.1803 11.5795C12.8017 11.0189 13.1123 10.1348 13.1123 8.92722C13.1123 7.69811 12.791 6.85714 12.1482 6.40431C11.5054 5.95148 10.3806 5.72507 8.7737 5.72507H5.01354V12.4205H8.67729Z" fill="#FFE600"/>
<path d="M23.9931 24H25.6V0H23.9931V24Z" fill="white"/>
</svg>
