<svg width="176" height="24" viewBox="0 0 176 24" fill="none" xmlns="http://www.w3.org/2000/svg">
<path d="M18.1847 8.8C18.1847 12.384 16.7628 14.6987 13.9191 15.744L19.5958 23.744H13.438L8.46693 16.608H5.00319V23.744H0V1.376H8.499C11.9841 1.376 14.4643 1.96267 15.9396 3.136C17.4363 4.30933 18.1847 6.19733 18.1847 8.8ZM8.65936 12.288C10.3699 12.288 11.5351 12.0107 12.1552 11.456C12.7752 10.9013 13.0853 10.0267 13.0853 8.832C13.0853 7.616 12.7645 6.784 12.1231 6.336C11.4817 5.888 10.3592 5.664 8.75558 5.664H5.00319V12.288H8.65936Z" fill="#FFE600"/>
<path d="M37.7664 21.248C35.8208 23.0827 33.533 24 30.9031 24C28.2946 24 26.1351 23.2 24.4246 21.6C22.7141 19.9787 21.8589 17.8133 21.8589 15.104C21.8589 12.3947 22.7248 10.24 24.4567 8.64C26.2099 7.04 28.2732 6.24 30.6465 6.24C33.0198 6.24 35.0297 6.95467 36.676 8.384C38.3437 9.81333 39.1776 11.776 39.1776 14.272V16.832H26.6055C26.7552 17.7707 27.2469 18.5387 28.0808 19.136C28.9146 19.7333 29.8554 20.032 30.9031 20.032C32.5922 20.032 33.982 19.4667 35.0724 18.336L37.7664 21.248ZM34.3027 13.408C34.1958 12.384 33.8109 11.5947 33.1481 11.04C32.4853 10.4853 31.6728 10.208 30.7107 10.208C29.7699 10.208 28.904 10.496 28.1129 11.072C27.3218 11.648 26.8621 12.4267 26.7338 13.408H34.3027Z" fill="#FFE600"/>
<path d="M47.0464 23.744L40.2152 6.496H45.2183L49.516 17.344L53.8136 6.496H58.8168L51.9855 23.744H47.0464Z" fill="#FFE600"/>
<path d="M64.6608 15.136C64.6608 16.544 65.0564 17.696 65.8475 18.592C66.66 19.4667 67.6862 19.904 68.9264 19.904C70.1878 19.904 71.2141 19.4667 72.0052 18.592C72.8177 17.696 73.224 16.544 73.224 15.136C73.224 13.728 72.8177 12.576 72.0052 11.68C71.2141 10.784 70.1878 10.336 68.9264 10.336C67.6862 10.336 66.66 10.784 65.8475 11.68C65.0564 12.576 64.6608 13.728 64.6608 15.136ZM78.0668 15.136C78.0668 17.632 77.2009 19.7333 75.469 21.44C73.7371 23.1467 71.5562 24 68.9264 24C66.3179 24 64.1477 23.1467 62.4158 21.44C60.6839 19.7333 59.818 17.632 59.818 15.136C59.818 12.64 60.6839 10.5387 62.4158 8.832C64.1477 7.104 66.3179 6.24 68.9264 6.24C71.5562 6.24 73.7371 7.104 75.469 8.832C77.2009 10.5387 78.0668 12.64 78.0668 15.136Z" fill="#FFE600"/>
<path d="M82.7625 23.744H84.3661V0H82.7625V23.744Z" fill="white"/>
<path d="M96.7696 6.912C94.1718 6.912 91.7344 7.808 90.0666 9.28L90.8684 10.432C92.2475 9.184 94.3322 8.32 96.6413 8.32C99.9126 8.32 101.612 9.984 101.612 13.088V14.432H95.8716C91.2212 14.432 89.6176 16.576 89.6176 19.104C89.6176 21.952 91.8947 23.872 95.6471 23.872C98.5656 23.872 100.618 22.688 101.677 20.768V23.744H103.216V13.152C103.216 9.024 100.907 6.912 96.7696 6.912ZM95.8716 22.56C92.921 22.56 91.2212 21.216 91.2212 19.04C91.2212 17.12 92.4399 15.68 95.9037 15.68H101.612V18.816C100.65 21.216 98.6939 22.56 95.8716 22.56Z" fill="white"/>
<path d="M118.001 6.912C114.826 6.912 112.485 8.32 111.362 10.656V7.04H109.823V23.744H111.427V14.848C111.427 10.88 113.832 8.352 117.777 8.352C121.176 8.352 123.197 10.336 123.197 14.112V23.744H124.801V13.984C124.801 9.312 122.074 6.912 118.001 6.912Z" fill="white"/>
<path d="M138.073 23.872C140.735 23.872 143.044 22.816 144.423 20.8L143.236 19.936C142.018 21.632 140.157 22.432 138.073 22.432C134.128 22.432 131.241 19.616 131.241 15.392C131.241 11.168 134.128 8.352 138.073 8.352C140.157 8.352 142.018 9.152 143.236 10.848L144.423 9.984C143.044 7.936 140.735 6.912 138.073 6.912C133.166 6.912 129.606 10.4 129.606 15.392C129.606 20.352 133.166 23.872 138.073 23.872Z" fill="white"/>
<path d="M163.117 15.328C163.117 10.368 159.718 6.912 155.132 6.912C150.545 6.912 147.114 10.432 147.114 15.392C147.114 20.352 150.674 23.872 155.741 23.872C158.275 23.872 160.584 22.944 162.059 21.152L161.129 20.096C159.846 21.664 157.89 22.432 155.773 22.432C151.764 22.432 148.846 19.744 148.685 15.776H163.085C163.085 15.616 163.117 15.456 163.117 15.328ZM155.132 8.32C158.692 8.32 161.321 10.912 161.546 14.528H148.717C148.974 10.88 151.572 8.32 155.132 8.32Z" fill="white"/>
<path d="M169.618 10.688V7.04H168.078V23.744H169.682V15.04C169.682 10.912 171.895 8.448 175.615 8.448C175.743 8.448 175.872 8.48 176 8.48V6.912C172.857 6.912 170.644 8.256 169.618 10.688Z" fill="white"/>
</svg>
